<?xml version="1.0" encoding="UTF-8" standalone="no"?><!DOCTYPE svg PUBLIC "-//W3C//DTD SVG 1.1//EN" "http://www.w3.org/Graphics/SVG/1.1/DTD/svg11.dtd"><svg width="100%" height="100%" viewBox="0 0 24 24" version="1.1" xmlns="http://www.w3.org/2000/svg" xmlns:xlink="http://www.w3.org/1999/xlink" xml:space="preserve" xmlns:serif="http://www.serif.com/" style="fill-rule:evenodd;clip-rule:evenodd;stroke-linejoin:round;stroke-miterlimit:2;"><path d="M14.722,15.245L14.722,11.096C13.68,10.765 12.916,9.784 12.916,8.638C12.916,7.224 14.08,6.06 15.494,6.06C16.909,6.06 18.072,7.224 18.072,8.638C18.072,9.784 17.309,10.765 16.267,11.096L16.267,15.245L19.115,15.245C19.994,15.245 20.708,15.958 20.708,16.837C20.708,17.154 20.708,17.486 20.708,17.803C20.708,18.225 20.54,18.63 20.241,18.929C19.942,19.228 19.537,19.395 19.115,19.395L11.874,19.395C11.452,19.395 11.047,19.228 10.748,18.929C10.449,18.63 10.281,18.225 10.281,17.803L10.281,16.837C10.281,15.958 10.994,15.245 11.874,15.245C13.148,15.245 14.722,15.245 14.722,15.245Z" style="fill:white;"/><path d="M1.954,12.31L1.954,11.93C1.949,11.873 1.949,11.817 1.954,11.76C1.95,11.703 1.95,11.647 1.954,11.59C1.978,11.543 2.008,11.499 2.044,11.46C2.079,11.421 2.044,11.37 2.124,11.34C2.204,11.31 2.124,11.34 2.124,11.34L7.574,6.35C7.761,6.164 8.014,6.06 8.278,6.06C8.826,6.06 9.278,6.511 9.278,7.06C9.278,7.363 9.14,7.65 8.904,7.84L5.484,10.91C4.446,11.82 4.441,11.951 5.404,12.91L8.924,16.18C9.323,16.554 9.345,17.189 8.974,17.59C8.785,17.793 8.521,17.909 8.244,17.91C7.991,17.909 7.748,17.813 7.564,17.64L2.184,12.64C2.153,12.599 2.127,12.555 2.104,12.51L1.954,12.31Z" style="fill:white;fill-rule:nonzero;"/></svg>