<?xml version="1.0" encoding="UTF-8" standalone="no"?><!DOCTYPE svg PUBLIC "-//W3C//DTD SVG 1.1//EN" "http://www.w3.org/Graphics/SVG/1.1/DTD/svg11.dtd"><svg width="100%" height="100%" viewBox="0 0 24 24" version="1.1" xmlns="http://www.w3.org/2000/svg" xmlns:xlink="http://www.w3.org/1999/xlink" xml:space="preserve" xmlns:serif="http://www.serif.com/" style="fill-rule:evenodd;clip-rule:evenodd;stroke-linejoin:round;stroke-miterlimit:2;"><path d="M21.79,10.48C21.379,7.856 19.938,5.501 17.79,3.94C15.668,2.368 12.995,1.725 10.39,2.16C9.058,2.381 7.786,2.871 6.65,3.6L6.65,3.41C6.665,3.339 6.673,3.267 6.673,3.195C6.673,2.634 6.211,2.172 5.65,2.172C5.17,2.172 4.751,2.51 4.65,2.98L4,6.22L4,6.37L4,6.46L4,6.69C4.016,6.742 4.036,6.792 4.06,6.84C4.056,6.877 4.056,6.913 4.06,6.95L4.21,7L4.32,7.12L4.38,7.19L4.47,7.19L4.63,7.27L4.91,7.27L7.46,7.45L7.53,7.45C8.053,7.451 8.493,7.042 8.53,6.52C8.532,6.496 8.533,6.472 8.533,6.448C8.533,5.925 8.122,5.485 7.6,5.45L7.27,5.45C10.028,3.399 13.832,3.399 16.59,5.45C18.724,6.964 19.994,9.424 19.994,12.04C19.994,15.951 17.154,19.329 13.3,20C8.97,20.666 4.857,17.658 4.18,13.33C4.02,12.404 4.02,11.456 4.18,10.53C4.191,10.471 4.196,10.41 4.196,10.35C4.196,9.793 3.737,9.334 3.18,9.334C2.69,9.334 2.267,9.688 2.18,10.17C1.98,11.321 1.98,12.499 2.18,13.65C2.923,18.484 7.109,22.099 12,22.13C12.543,22.133 13.085,22.09 13.62,22C19.017,21.074 22.701,15.879 21.79,10.48Z" style="fill:white;fill-rule:nonzero;"/><path d="M10.322,11.426C10.746,11.531 11.072,11.721 11.3,11.996C11.528,12.271 11.642,12.603 11.642,12.99C11.642,13.321 11.552,13.628 11.371,13.914C11.19,14.2 10.911,14.432 10.534,14.61C10.157,14.788 9.688,14.877 9.127,14.877C8.739,14.877 8.353,14.835 7.967,14.751C7.582,14.667 7.246,14.544 6.957,14.382L7.586,13.014C7.812,13.145 8.054,13.245 8.313,13.313C8.573,13.381 8.823,13.415 9.064,13.415C9.279,13.415 9.452,13.378 9.583,13.305C9.714,13.232 9.779,13.127 9.779,12.99C9.779,12.739 9.562,12.613 9.127,12.613L8.396,12.613L8.396,11.473L9.206,10.648L7.24,10.648L7.24,9.249L11.344,9.249L11.344,10.389L10.322,11.426Z" style="fill:white;fill-rule:nonzero;"/><path d="M14.551,14.877C14.063,14.877 13.632,14.763 13.258,14.535C12.883,14.307 12.59,13.977 12.377,13.545C12.165,13.112 12.059,12.597 12.059,12C12.059,11.403 12.165,10.888 12.377,10.455C12.59,10.023 12.883,9.693 13.258,9.465C13.632,9.237 14.063,9.123 14.551,9.123C15.038,9.123 15.469,9.237 15.844,9.465C16.219,9.693 16.512,10.023 16.724,10.455C16.937,10.888 17.043,11.403 17.043,12C17.043,12.597 16.937,13.112 16.724,13.545C16.512,13.977 16.219,14.307 15.844,14.535C15.469,14.763 15.038,14.877 14.551,14.877ZM14.551,13.391C14.97,13.391 15.18,12.928 15.18,12C15.18,11.072 14.97,10.609 14.551,10.609C14.132,10.609 13.922,11.072 13.922,12C13.922,12.928 14.132,13.391 14.551,13.391Z" style="fill:white;fill-rule:nonzero;"/></svg>